<?xml version="1.0" encoding="utf-8"?>
<!-- Generator: Adobe Illustrator 16.0.0, SVG Export Plug-In . SVG Version: 6.00 Build 0)  -->
<!DOCTYPE svg PUBLIC "-//W3C//DTD SVG 1.1//EN" "http://www.w3.org/Graphics/SVG/1.1/DTD/svg11.dtd">
<svg version="1.1" id="Layer_1" xmlns="http://www.w3.org/2000/svg" xmlns:xlink="http://www.w3.org/1999/xlink" x="0px" y="0px"
	 width="758.223px" height="203.641px" viewBox="0 0 758.223 203.641" enable-background="new 0 0 758.223 203.641"
	 xml:space="preserve">
<polygon fill="rgba(0,87,60,1)" points="293.523,3.043 290.002,20.324 264.592,20.324 264.592,106.576 242.856,106.576 242.856,20.324 
	216.834,20.324 216.834,3.043 "/>
<g>
	<path fill="rgba(0,87,60,1)" d="M327.808,3.043v68.079c0,6.406,0.612,10.129,1.837,12.364c2.449,4.617,7.501,7.151,14.542,7.151
		c9.338,0,15.306-4.47,16.225-12.068c0.306-2.233,0.306-3.723,0.306-9.235V3.043h21.736v69.718c0,9.831-0.152,11.767-1.683,16.236
		c-2.756,8.195-13.165,19.517-36.125,19.517c-16.226,0-28.164-4.768-34.135-13.856c-3.52-5.363-4.592-9.534-4.592-19.514V3.043
		H327.808z"/>
	<path fill="rgba(0,87,60,1)" d="M447.201,3.043c18.828,0,31.226,12.216,31.226,30.39c0,15.492-10.56,28.303-23.725,28.602
		c2.143,1.638,3.061,2.532,4.438,4.32c6.123,7.448,25.564,40.221,25.564,40.221h-25.257c-4.134-6.853-5.817-9.682-9.95-16.983
		c-10.562-18.62-13.777-23.685-17.604-25.324c-1.071-0.447-1.99-0.744-3.367-0.894v43.201h-20.971V3.043H447.201z M428.526,47.733
		h7.193c9.187,0,13.164-0.894,16.074-3.425c2.601-2.384,4.132-6.108,4.132-10.428c0-6.406-2.602-10.875-7.654-12.663
		c-2.448-0.893-6.888-1.489-12.091-1.489h-7.654V47.733z"/>
	<path fill="rgba(0,87,60,1)" d="M523.11,3.043l20.357,41.413c5.359,11.024,9.492,21.899,11.634,29.347
		c-0.764-8.044-1.529-21.303-1.684-28.454L552.96,3.043h20.356v103.533h-22.349l-18.214-39.625
		c-5.971-12.961-12.399-27.561-14.389-33.965c0.765,8.49,0.918,20.706,1.071,29.347l0.613,44.243h-20.666V3.043H523.11z"/>
	<polygon fill="rgba(0,87,60,1)" points="659.646,3.043 656.89,20.026 620.46,20.026 620.46,44.01 650.921,44.01 650.921,60.992 
		620.765,60.992 620.765,88.699 661.023,88.699 661.023,106.576 599.03,106.576 599.03,3.043 	"/>
	<path fill="rgba(0,87,60,1)" d="M720.722,3.043c18.826,0,31.226,12.216,31.226,30.39c0,15.492-10.562,28.303-23.725,28.602
		c2.141,1.638,3.061,2.532,4.438,4.32c6.123,7.448,25.563,40.221,25.563,40.221h-25.259c-4.131-6.853-5.814-9.682-9.948-16.983
		c-10.563-18.62-13.777-23.685-17.604-25.324c-1.072-0.447-1.989-0.744-3.366-0.894v43.201h-20.972V3.043H720.722z M702.047,47.733
		h7.192c9.185,0,13.165-0.894,16.074-3.425c2.601-2.384,4.133-6.108,4.133-10.428c0-6.406-2.604-10.875-7.655-12.663
		c-2.449-0.893-6.889-1.489-12.092-1.489h-7.652V47.733z"/>
	<rect x="228.274" y="133.965" fill="rgba(0,87,60,1)" width="12.84" height="68.205"/>
	<path fill="rgba(0,87,60,1)" d="M276.557,133.965l11.698,27.282c3.078,7.262,5.452,14.426,6.683,19.332
		c-0.439-5.3-0.879-14.032-0.966-18.743l-0.265-27.871h11.697v68.205h-12.84l-10.466-26.104c-3.43-8.538-7.124-18.154-8.268-22.375
		c0.44,5.593,0.528,13.641,0.616,19.332l0.352,29.147h-11.873v-68.205H276.557z"/>
	<path fill="rgba(0,87,60,1)" d="M339.526,133.965c3.518,0,8.18,0.197,10.643,0.395c5.188,0.49,9.674,2.648,13.367,6.771
		c5.629,6.182,8.355,14.916,8.355,27.184c0,9.321-2.023,17.467-6.156,23.647c-3.694,5.597-9.146,9.324-14.863,9.814
		c-2.287,0.197-5.19,0.394-8.795,0.394h-14.863v-68.204H339.526z M339.703,190.982h6.597c8.091,0,11.785-6.968,11.785-21.394
		c0-7.949-0.616-14.621-3.079-19.135c-2.023-3.73-4.836-5.691-9.674-5.691h-5.629V190.982z"/>
	<path fill="rgba(0,87,60,1)" d="M402.409,133.965v44.848c0,4.221,0.353,6.673,1.056,8.146c1.408,3.043,4.31,4.711,8.354,4.711
		c5.365,0,8.795-2.944,9.323-7.949c0.175-1.473,0.175-2.453,0.175-6.085v-43.67h12.49v45.927c0,6.478-0.088,7.754-0.968,10.698
		c-1.582,5.395-7.564,12.854-20.756,12.854c-9.322,0-16.184-3.139-19.612-9.126c-2.023-3.533-2.639-6.28-2.639-12.854v-47.498
		H402.409z"/>
	<path fill="rgba(0,87,60,1)" d="M488.685,148.588c-5.54-3.729-9.674-5.201-14.247-5.201c-5.014,0-8.531,3.237-8.531,7.85
		c0,3.533,1.672,5.3,6.771,6.87l7.389,2.257c10.025,3.042,15.479,10.207,15.479,20.314c0,13.837-10.026,22.963-25.241,22.963
		c-6.947,0-14.687-2.257-20.844-6.182l4.573-10.698c5.716,3.338,10.642,5.497,16.798,5.497c7.037,0,10.729-3.238,10.729-9.323
		c0-4.416-2.55-7.163-8.003-8.833l-6.771-2.06c-6.068-1.865-9.851-4.515-12.049-8.637c-1.671-3.042-2.551-6.573-2.551-10.402
		c0-12.462,8.971-21.098,21.898-21.098c7.476,0,15.04,2.553,20.406,6.87L488.685,148.588z"/>
	<polygon fill="rgba(0,87,60,1)" points="551.037,133.965 549.014,145.351 534.414,145.351 534.414,202.17 521.926,202.17 521.926,145.351 
		506.975,145.351 506.975,133.965 	"/>
	<path fill="rgba(0,87,60,1)" d="M588.326,133.965c10.818,0,17.941,8.046,17.941,20.021c0,10.205-6.067,18.645-13.632,18.841
		c1.231,1.079,1.76,1.668,2.552,2.846c3.517,4.906,14.686,26.497,14.686,26.497h-14.51c-2.374-4.517-3.342-6.379-5.717-11.188
		c-6.07-12.268-7.915-15.604-10.114-16.683c-0.617-0.294-1.144-0.49-1.936-0.589v28.46h-12.05v-68.205H588.326z M577.597,163.406
		h4.135c5.275,0,7.562-0.589,9.233-2.257c1.495-1.569,2.375-4.023,2.375-6.869c0-4.221-1.496-7.165-4.396-8.34
		c-1.408-0.589-3.958-0.983-6.949-0.983h-4.397V163.406z"/>
	<rect x="625.968" y="133.965" fill="rgba(0,87,60,1)" width="12.841" height="68.205"/>
	<polygon fill="rgba(0,87,60,1)" points="695.447,133.965 693.863,145.153 672.932,145.153 672.932,160.953 690.434,160.953 690.434,172.14 
		673.107,172.14 673.107,190.393 696.238,190.393 696.238,202.17 660.62,202.17 660.62,133.965 	"/>
	<path fill="rgba(0,87,60,1)" d="M748.217,148.588c-5.541-3.729-9.675-5.201-14.248-5.201c-5.015,0-8.531,3.237-8.531,7.85
		c0,3.533,1.672,5.3,6.771,6.87l7.388,2.257c10.026,3.042,15.479,10.207,15.479,20.314c0,13.837-10.024,22.963-25.241,22.963
		c-6.946,0-14.687-2.257-20.844-6.182l4.574-10.698c5.716,3.338,10.642,5.497,16.798,5.497c7.037,0,10.729-3.238,10.729-9.323
		c0-4.416-2.55-7.163-8.004-8.833l-6.771-2.06c-6.069-1.865-9.851-4.515-12.049-8.637c-1.671-3.042-2.552-6.573-2.552-10.402
		c0-12.462,8.972-21.098,21.899-21.098c7.476,0,15.039,2.553,20.405,6.87L748.217,148.588z"/>
	<path fill="rgba(0,87,60,1)" d="M156.654,113.452c-16.24,0-29.403,3.605-29.403,8.062c0,0.724,0.349,1.427,1.002,2.095
		c3.366-3.437,14.807-5.966,28.401-5.966c13.595,0,25.036,2.529,28.399,5.966c0.427-0.438,0.726-0.889,0.881-1.351v-1.49
		C184.564,116.663,171.979,113.452,156.654,113.452 M156.654,79.904c-16.24,0-29.403,3.609-29.403,8.064
		c0,0.723,0.349,1.429,1.002,2.095c3.366-3.439,14.807-5.969,28.401-5.969c13.595,0,25.036,2.53,28.399,5.969
		c0.427-0.436,0.726-0.889,0.881-1.349v-1.49C184.564,83.116,171.979,79.904,156.654,79.904"/>
	<path fill="rgba(0,87,60,1)" d="M156.654,174.948c-16.24,0-29.403,3.61-29.403,8.063c0,0.725,0.349,1.429,1.002,2.097
		c3.366-3.437,14.807-5.966,28.401-5.966c13.595,0,25.036,2.529,28.399,5.966c0.427-0.436,0.726-0.889,0.881-1.354v-1.487
		C184.564,178.162,171.979,174.948,156.654,174.948 M156.654,145.272c-16.24,0-29.403,3.611-29.403,8.063
		c0,0.726,0.349,1.432,1.002,2.098c3.366-3.437,14.807-5.969,28.401-5.969c13.595,0,25.036,2.532,28.399,5.969
		c0.427-0.437,0.726-0.889,0.881-1.348v-1.493C184.564,148.487,171.979,145.272,156.654,145.272"/>
	<path fill="rgba(0,87,60,1)" d="M0,133.767h2.658v-29.348h14.605c-2.679-3.358-4.305-7.757-4.305-12.576c0-6.742,3.178-12.659,7.974-16.042
		v-6.218H0V133.767z M39.539,75.801c4.794,3.383,7.973,9.3,7.973,16.042c0,4.819-1.627,9.218-4.309,12.576h6.635V69.583H39.539
		V75.801z M27.577,116.674H7.973c-1.467,0-2.657,1.157-2.657,2.579c0,1.426,1.19,2.58,2.657,2.58h19.604
		c1.467,0,2.657-1.154,2.657-2.58C30.233,117.832,29.043,116.674,27.577,116.674"/>
	<path fill="rgba(0,87,60,1)" d="M156.654,43.455c-15.193,0-27.692,3.16-29.24,7.214v1.661c0.159,0.441,0.434,0.868,0.839,1.287
		c3.366-3.437,14.807-5.968,28.401-5.968c13.595,0,25.036,2.531,28.399,5.968c0.438-0.45,0.728-0.914,0.881-1.391v-1.424
		C184.608,46.683,172.01,43.455,156.654,43.455 M156.654,27.328c15.353,0,27.948,3.227,29.28,7.341V0h-58.52v34.542
		C128.962,30.487,141.461,27.328,156.654,27.328"/>
	<path fill="rgba(0,87,60,1)" d="M6.645,145.059h21.929c1.467,0,1.329-0.65,1.329-1.452c0-0.803,0.138-1.452-1.329-1.452H6.645
		c-1.467,0-1.329,0.649-1.329,1.452C5.315,144.409,5.178,145.059,6.645,145.059 M2.658,196.022v-56.77H0v63.222h58.475v-6.452H2.658
		z M27.577,165.378H7.973c-1.467,0-2.657,1.154-2.657,2.58c0,1.427,1.19,2.581,2.657,2.581h19.604c1.467,0,2.657-1.154,2.657-2.581
		C30.233,166.533,29.043,165.378,27.577,165.378"/>
	<polygon fill="rgba(0,87,60,1)" points="127.458,196.022 127.47,202.474 185.945,202.474 185.945,196.022 	"/>
	<path fill="rgba(0,87,60,1)" d="M99.507,173.28c2.111,0,3.82-1.731,3.82-3.869v-22.419c0-2.137-1.709-3.87-3.82-3.87
		c-2.11,0-3.822,1.733-3.822,3.87v22.419C95.685,171.548,97.397,173.28,99.507,173.28 M121.934,196.022H64.455v6.452h57.595
		L121.934,196.022z M74.174,166.992c1.147,0,2.077-1.156,2.077-2.58v-18.708c0-1.428-0.93-2.582-2.077-2.582
		s-2.077,1.154-2.077,2.582v18.708C72.097,165.835,73.027,166.992,74.174,166.992 M83.974,188.604c2.064,0,3.738-1.733,3.738-3.873
		v-37.739c0-2.137-1.674-3.87-3.738-3.87c-2.062,0-3.738,1.733-3.738,3.87v37.739C80.236,186.871,81.912,188.604,83.974,188.604
		 M114.458,188.604c2.111,0,3.82-1.733,3.82-3.873v-37.092c0-2.137-1.709-3.871-3.82-3.871c-2.11,0-3.82,1.734-3.82,3.871v37.092
		C110.638,186.871,112.348,188.604,114.458,188.604"/>
	<path fill="rgba(0,87,60,1)" d="M50.168,43.776c0-2.313,1.935-4.191,4.32-4.191c1.798,0,3.337,1.066,3.986,2.583V0H0v63.775h21.263v-20.32
		h0.028c0.247-2.178,2.315-3.87,4.624-3.87V18.296c0.087-2.403,1.989-4.192,4.318-4.192c2.331,0,4.232,1.789,4.32,4.031v21.452
		c2.475-0.002,4.376,1.69,4.624,3.868l0.028,0.484v19.836h10.963V44.098C50.162,43.992,50.168,43.886,50.168,43.776"/>
	<path fill="rgba(0,87,60,1)" d="M81.898,118.924v9.201c0,2.137,1.748,3.869,3.904,3.869c2.156,0,3.904-1.732,3.904-3.869v-9.405
		c-1.284,0.554-2.688,0.859-4.159,0.859C84.27,119.58,83.042,119.346,81.898,118.924 M64.456,69.54v64.223l2.345-0.007l-0.02-22.239
		c0-1.43,1.191-2.583,2.66-2.583c1.467,0,2.656,1.153,2.656,2.583l-0.02,22.252h4.672v-18.815c-1.462-2.018-2.333-4.556-2.333-7.31
		c0-4.749,2.582-8.845,6.32-10.771V69.583L64.456,69.54z M91.616,71.84c-1.146,0-2.075,1.155-2.075,2.581v18.709
		c0,1.424,0.929,2.578,2.075,2.578c1.149,0,2.077-1.154,2.077-2.578V74.42C93.692,72.995,92.765,71.84,91.616,71.84 M111.8,119.321
		v8.643c0,2.139,1.748,3.871,3.904,3.871c2.156,0,3.904-1.732,3.904-3.871v-9.295c-1.454,0.695-3.07,1.079-4.763,1.079
		C113.792,119.748,112.771,119.601,111.8,119.321 M97.016,119.093v9.032c0,2.137,1.749,3.869,3.905,3.869
		c2.156,0,3.902-1.732,3.902-3.869v-9.189c-1.255,0.619-2.632,0.965-4.073,0.965C99.437,119.901,98.178,119.617,97.016,119.093
		 M108.229,72.164c-0.962,0-1.744,1.154-1.744,2.581v9.672c0,1.429,0.782,2.583,1.744,2.583c0.963,0,1.745-1.154,1.745-2.583v-9.672
		C109.974,73.318,109.191,72.164,108.229,72.164"/>
	<path fill="rgba(0,87,60,1)" d="M64.455,0v63.775h16.28V36.359c0.166-2.701,2.415-4.838,5.15-4.838c2.737,0,4.974,2.137,5.139,4.838h0.178
		v27.416h4.713V45.147c0.041-2.939,2.318-5.239,5.12-5.239c2.799,0,5.074,2.302,5.117,5.16h0.166v18.707h4.652V41.198
		c0.174-2.522,2.383-4.516,5.067-4.516s4.891,1.994,5.067,4.516v22.577h0.946V0H64.455z"/>
</g>
</svg>
